<?xml version="1.0" encoding="utf-8"?>
<!-- Generator: Adobe Illustrator 23.0.6, SVG Export Plug-In . SVG Version: 6.00 Build 0)  -->
<svg version="1.1" id="Layer_1" xmlns="http://www.w3.org/2000/svg" xmlns:xlink="http://www.w3.org/1999/xlink" x="0px" y="0px"
	 viewBox="0 0 393 182.2" style="enable-background:new 0 0 393 182.2;" xml:space="preserve">
<style type="text/css">
	.st0{fill:#0970B8;}
</style>
<path class="st0" d="M390.5,85.5c-21.3-11.5-45.2-17.3-71.1-17.3c-0.7,0-1.3,0-2,0h-0.1h-0.1C265.4,68.7,243.3,84,213,105
	c-15.7,10.9-33.4,23.2-58.8,35.8C82.9,175.9,8.6,121.3,7.9,120.7c-2.2-1.6-5.3-1.2-6.9,1c-1.6,2.2-1.2,5.2,1,6.9
	c0.7,0.6,5.5,4,13.2,8.6v40.1c0,2.7,2.2,4.9,4.9,4.9s4.9-2.2,4.9-4.9v-34.8C35.8,148,49.9,154,66,158v19.2c0,2.7,2.2,4.9,4.9,4.9
	s4.9-2.2,4.9-4.9v-17.1c8.4,1.5,17.2,2.5,26.3,2.5c4.1,0,8.3-0.2,12.5-0.6v15.3c0,2.7,2.2,4.9,4.9,4.9s4.9-2.2,4.9-4.9v-16.6
	c11.2-1.9,22.6-5.5,34-11.1c1.8-0.9,3.5-1.8,5.3-2.7v30.4c0,2.7,2.2,4.9,4.9,4.9s4.9-2.2,4.9-4.9v-35.6c16.4-9,29.4-17.8,41-25.8
	v61.4c0,2.7,2.2,4.9,4.9,4.9s4.9-2.2,4.9-4.9v-68.2c12.9-8.9,24.7-16.5,38.8-21.9v90.1c0,2.7,2.2,4.9,4.9,4.9c2.7,0,4.9-2.2,4.9-4.9
	V83.8c11-3.2,23.7-5.2,39.3-5.6v99.1c0,2.7,2.2,4.9,4.9,4.9s4.9-2.2,4.9-4.9V78.1c13.8,0.2,26.9,2.2,39.3,6v93.2
	c0,2.7,2.2,4.9,4.9,4.9s4.9-2.2,4.9-4.9V87.5c5,1.9,9.8,4.1,14.5,6.7c2.4,1.3,5.4,0.4,6.7-2C393.8,89.7,392.9,86.8,390.5,85.5z"/>
<path class="st0" d="M64,67.5c-5.1,0-9.3,4.2-9.3,9.3c0,5.1,4.2,9.3,9.3,9.3c2.1,0,4.1-0.8,5.7-2c1.4,12.2,6.4,23.4,13.9,32.5
	c0,0-0.1,0-0.1,0c-5.1,0-9.3,4.2-9.3,9.3s4.2,9.3,9.3,9.3c5.1,0,9.3-4.2,9.3-9.3c0-0.1,0-0.2,0-0.3c2.9,2.3,5.9,4.3,9.2,6.1
	L96.4,145c-0.4,1,0.1,2.2,1.1,2.7c0.3,0.1,0.5,0.2,0.8,0.2c0.8,0,1.6-0.5,1.9-1.3l5.4-13.1c4.6,2.1,9.4,3.7,14.5,4.6
	c0.1,0,0.2,0,0.4,0c1,0,1.8-0.7,2-1.7c0.2-1.1-0.5-2.2-1.6-2.4c-11.4-2.1-21.4-7.4-29.3-14.9L124,86.7c1.5,1.2,3.4,2,5.3,2.3v40.9
	c0,1.1,0.9,2,2,2c1.1,0,2-0.9,2-2V89c2-0.3,3.9-1.1,5.5-2.3l25.1,25.1c0.4,0.4,0.9,0.6,1.4,0.6s1-0.2,1.4-0.6c0.8-0.8,0.8-2.1,0-2.9
	l-25.2-25.2c1-1.5,1.7-3.2,2-5h45.9c-0.3,10.4-3.4,20.6-9.1,29.4c-0.6,0.9-0.3,2.2,0.6,2.8c0.9,0.6,2.2,0.3,2.8-0.6
	c5.1-7.9,8.2-16.9,9.3-26.2c1.6,1.3,3.6,2,5.7,2c5.1,0,9.3-4.2,9.3-9.3c0-5.1-4.2-9.3-9.3-9.3c-2.2,0-4.1,0.8-5.7,2
	c-1.3-11.3-5.7-21.7-12.3-30.4c4.7-0.5,8.3-4.4,8.3-9.2c0-5.1-4.2-9.3-9.3-9.3c-4.7,0-8.5,3.5-9.2,8c-9-7.4-20.1-12.3-32.2-13.7
	c1.2-1.6,2-3.5,2-5.7c0-5.1-4.2-9.3-9.3-9.3c-5.1,0-9.3,4.2-9.3,9.3c0,2.2,0.8,4.1,2,5.7c-11.3,1.4-21.7,5.7-30.4,12.4
	c-0.4-4.8-4.4-8.5-9.2-8.5c-5.1,0-9.3,4.2-9.3,9.3c0,4.7,3.6,8.6,8.2,9.2c-7.4,9-12.3,20.1-13.7,32.2C68.1,68.3,66.1,67.5,64,67.5z
	 M64,82.1c-2.9,0-5.2-2.3-5.2-5.2c0-2.9,2.3-5.2,5.2-5.2c2.9,0,5.2,2.3,5.2,5.2C69.2,79.7,66.9,82.1,64,82.1z M141.7,69.7l32.4-32.4
	c9.2,9.9,15,23,15.5,37.5h-45.9C143.5,72.9,142.8,71.2,141.7,69.7z M138.9,66.8c-1.6-1.2-3.4-2-5.4-2.3V18.7
	c14.6,0.5,27.8,6.4,37.8,15.7L138.9,66.8z M129.4,64.5c-2,0.3-3.9,1.2-5.4,2.3L91.7,34.5c10-9.4,23.2-15.3,37.8-15.8V64.5z
	 M119.2,78.8c0.3,1.8,1,3.5,2,5l-32.5,32.5c-9.2-10-14.9-23.2-15.3-37.5H119.2z M121.2,69.8c-1,1.5-1.7,3.1-2,5H73.4
	c0.5-14.4,6.3-27.5,15.4-37.4L121.2,69.8z M83.5,131.2c-2.9,0-5.2-2.3-5.2-5.2s2.3-5.2,5.2-5.2c2.9,0,5.2,2.3,5.2,5.2
	S86.4,131.2,83.5,131.2z M123.1,76.8c0-4.6,3.8-8.4,8.4-8.4c4.6,0,8.4,3.8,8.4,8.4c0,4.6-3.8,8.4-8.4,8.4
	C126.9,85.1,123.1,81.4,123.1,76.8z M199.1,71.6c2.9,0,5.2,2.3,5.2,5.2c0,2.9-2.3,5.2-5.2,5.2c-2.9,0-5.2-2.3-5.2-5.2
	C193.9,73.9,196.2,71.6,199.1,71.6z M180.2,24.7c2.9,0,5.2,2.3,5.2,5.2s-2.3,5.2-5.2,5.2s-5.2-2.3-5.2-5.2S177.3,24.7,180.2,24.7z
	 M131.4,4.1c2.9,0,5.2,2.3,5.2,5.2s-2.3,5.2-5.2,5.2c-2.9,0-5.2-2.3-5.2-5.2S128.5,4.1,131.4,4.1z M79.3,28.1c0-2.9,2.3-5.2,5.2-5.2
	c2.9,0,5.2,2.3,5.2,5.2s-2.3,5.2-5.2,5.2C81.6,33.4,79.3,31,79.3,28.1z"/>
<circle class="st0" cx="156.1" cy="129.1" r="6.2"/>
<circle class="st0" cx="141.7" cy="135.3" r="6.2"/>
<circle class="st0" cx="170.3" cy="121.5" r="6.2"/>
</svg>
