<svg id="Layer_1" data-name="Layer 1" xmlns="http://www.w3.org/2000/svg" xmlns:xlink="http://www.w3.org/1999/xlink" viewBox="0 0 256.7 256.6"><defs><style>.cls-1{fill:url(#Blue_Gradient);}.cls-2{fill:url(#Blue_Gradient-2);}.cls-3{fill:url(#Blue_Gradient-3);}.cls-4{fill:url(#Blue_Gradient-4);}.cls-5{fill:url(#Blue_Gradient-5);}.cls-6{fill:url(#Blue_Gradient-6);}.cls-7{fill:url(#Blue_Gradient-7);}.cls-8{fill:url(#Blue_Gradient-8);}.cls-9{fill:url(#Blue_Gradient-9);}</style><linearGradient id="Blue_Gradient" x1="165.74" y1="128.3" x2="226.89" y2="128.3" gradientUnits="userSpaceOnUse"><stop offset="0" stop-color="#018b7f"/><stop offset="0.33" stop-color="#01838f"/><stop offset="0.98" stop-color="#0170b8"/><stop offset="1" stop-color="#016fb9"/></linearGradient><linearGradient id="Blue_Gradient-2" x1="97.78" y1="128.3" x2="158.92" y2="128.3" xlink:href="#Blue_Gradient"/><linearGradient id="Blue_Gradient-3" x1="98.07" y1="54.1" x2="159.22" y2="54.1" xlink:href="#Blue_Gradient"/><linearGradient id="Blue_Gradient-4" x1="98.07" y1="202.5" x2="159.22" y2="202.5" xlink:href="#Blue_Gradient"/><linearGradient id="Blue_Gradient-5" x1="165.89" y1="54.1" x2="227.04" y2="54.1" xlink:href="#Blue_Gradient"/><linearGradient id="Blue_Gradient-6" x1="165.89" y1="202.5" x2="227.04" y2="202.5" xlink:href="#Blue_Gradient"/><linearGradient id="Blue_Gradient-7" x1="29.51" y1="128.3" x2="90.65" y2="128.3" xlink:href="#Blue_Gradient"/><linearGradient id="Blue_Gradient-8" x1="29.81" y1="54.1" x2="90.95" y2="54.1" xlink:href="#Blue_Gradient"/><linearGradient id="Blue_Gradient-9" x1="29.81" y1="202.5" x2="90.95" y2="202.5" xlink:href="#Blue_Gradient"/></defs><path class="cls-1" d="M196.31,158.87a30.57,30.57,0,1,1,30.58-30.57A30.61,30.61,0,0,1,196.31,158.87Zm0-56.14a25.57,25.57,0,1,0,25.58,25.57A25.6,25.6,0,0,0,196.31,102.73Z"/><path class="cls-2" d="M128.35,158.87a30.57,30.57,0,1,1,30.57-30.57A30.6,30.6,0,0,1,128.35,158.87Zm0-56.14a25.57,25.57,0,1,0,25.57,25.57A25.6,25.6,0,0,0,128.35,102.73Z"/><path class="cls-3" d="M128.65,84.67A30.57,30.57,0,1,1,159.22,54.1,30.61,30.61,0,0,1,128.65,84.67Zm0-56.14A25.57,25.57,0,1,0,154.22,54.1,25.61,25.61,0,0,0,128.65,28.53Z"/><path class="cls-4" d="M128.65,233.08a30.58,30.58,0,1,1,30.57-30.58A30.62,30.62,0,0,1,128.65,233.08Zm0-56.15a25.58,25.58,0,1,0,25.57,25.57A25.61,25.61,0,0,0,128.65,176.93Z"/><path class="cls-5" d="M196.46,84.67A30.57,30.57,0,1,1,227,54.1,30.61,30.61,0,0,1,196.46,84.67Zm0-56.14A25.57,25.57,0,1,0,222,54.1,25.6,25.6,0,0,0,196.46,28.53Z"/><path class="cls-6" d="M196.46,233.08A30.58,30.58,0,1,1,227,202.5,30.61,30.61,0,0,1,196.46,233.08Zm0-56.15A25.58,25.58,0,1,0,222,202.5,25.6,25.6,0,0,0,196.46,176.93Z"/><path class="cls-7" d="M60.08,158.87A30.57,30.57,0,1,1,90.65,128.3,30.6,30.6,0,0,1,60.08,158.87Zm0-56.14A25.57,25.57,0,1,0,85.65,128.3,25.6,25.6,0,0,0,60.08,102.73Z"/><path class="cls-8" d="M60.38,84.67A30.57,30.57,0,1,1,91,54.1,30.6,30.6,0,0,1,60.38,84.67Zm0-56.14A25.57,25.57,0,1,0,86,54.1,25.6,25.6,0,0,0,60.38,28.53Z"/><path class="cls-9" d="M60.38,233.08A30.58,30.58,0,1,1,91,202.5,30.61,30.61,0,0,1,60.38,233.08Zm0-56.15A25.58,25.58,0,1,0,86,202.5,25.6,25.6,0,0,0,60.38,176.93Z"/></svg>