<svg id="Layer_1" data-name="Layer 1" xmlns="http://www.w3.org/2000/svg" xmlns:xlink="http://www.w3.org/1999/xlink" viewBox="0 0 256.7 256.6"><defs><style>.cls-1,.cls-10,.cls-11{fill:none;stroke-miterlimit:10;stroke-width:5px;}.cls-1{stroke:url(#Blue_Gradient);}.cls-2{fill:url(#Blue_Gradient-2);}.cls-3{fill:url(#Blue_Gradient-3);}.cls-4{fill:url(#Blue_Gradient-4);}.cls-5{fill:url(#Blue_Gradient-5);}.cls-6{fill:url(#Blue_Gradient-6);}.cls-7{fill:url(#Blue_Gradient-7);}.cls-8{fill:url(#Blue_Gradient-8);}.cls-9{fill:url(#Blue_Gradient-9);}.cls-10{stroke:url(#Blue_Gradient-10);}.cls-11{stroke:url(#Blue_Gradient-11);}</style><linearGradient id="Blue_Gradient" x1="24.68" y1="128.9" x2="231.72" y2="128.9" gradientUnits="userSpaceOnUse"><stop offset="0" stop-color="#018b7f"/><stop offset="0.33" stop-color="#01838f"/><stop offset="0.98" stop-color="#0170b8"/><stop offset="1" stop-color="#016fb9"/></linearGradient><linearGradient id="Blue_Gradient-2" x1="119.36" y1="27.88" x2="137.93" y2="27.88" xlink:href="#Blue_Gradient"/><linearGradient id="Blue_Gradient-3" x1="119.36" y1="27.88" x2="137.93" y2="27.88" gradientTransform="translate(128.69 -52.9) rotate(45)" xlink:href="#Blue_Gradient"/><linearGradient id="Blue_Gradient-4" x1="119.36" y1="27.88" x2="137.93" y2="27.88" gradientTransform="translate(257.1 0.7) rotate(90)" xlink:href="#Blue_Gradient"/><linearGradient id="Blue_Gradient-5" x1="119.36" y1="27.88" x2="137.93" y2="27.88" gradientTransform="translate(310 129.39) rotate(135)" xlink:href="#Blue_Gradient"/><linearGradient id="Blue_Gradient-6" x1="119.36" y1="27.88" x2="137.93" y2="27.88" gradientTransform="translate(256.4 257.8) rotate(180)" xlink:href="#Blue_Gradient"/><linearGradient id="Blue_Gradient-7" x1="119.36" y1="27.88" x2="137.93" y2="27.88" gradientTransform="translate(127.71 310.69) rotate(-135)" xlink:href="#Blue_Gradient"/><linearGradient id="Blue_Gradient-8" x1="119.36" y1="27.88" x2="137.93" y2="27.88" gradientTransform="translate(-0.7 257.1) rotate(-90)" xlink:href="#Blue_Gradient"/><linearGradient id="Blue_Gradient-9" x1="119.36" y1="27.88" x2="137.93" y2="27.88" gradientTransform="translate(-53.6 128.4) rotate(-45)" xlink:href="#Blue_Gradient"/><linearGradient id="Blue_Gradient-10" x1="54.59" y1="115.62" x2="208.68" y2="115.62" xlink:href="#Blue_Gradient"/><linearGradient id="Blue_Gradient-11" x1="54.44" y1="163.93" x2="229.46" y2="163.93" xlink:href="#Blue_Gradient"/></defs><circle class="cls-1" cx="128.2" cy="128.9" r="101.02"/><circle class="cls-2" cx="128.65" cy="27.88" r="9.28"/><circle class="cls-3" cx="199.95" cy="57.78" r="9.28"/><circle class="cls-4" cx="229.22" cy="129.34" r="9.28"/><circle class="cls-5" cx="199.32" cy="200.65" r="9.28"/><circle class="cls-6" cx="127.75" cy="229.92" r="9.28"/><circle class="cls-7" cx="56.45" cy="200.02" r="9.28"/><circle class="cls-8" cx="27.18" cy="128.45" r="9.28"/><circle class="cls-9" cx="57.08" cy="57.15" r="9.28"/><path class="cls-10" d="M128.65,27.88s-22.33,111,70.67,172.77c0,0-135.53-10.25-142.24-143.5"/><path class="cls-11" d="M229.22,129.34S116.22,118.49,56.45,200"/></svg>