<svg id="Layer_1" data-name="Layer 1" xmlns="http://www.w3.org/2000/svg" xmlns:xlink="http://www.w3.org/1999/xlink" viewBox="0 0 256.7 256.6"><defs><style>.cls-1{fill:url(#Blue_Gradient);}.cls-2{fill:url(#Blue_Gradient-2);}</style><linearGradient id="Blue_Gradient" x1="22.71" y1="128.3" x2="233.99" y2="128.3" gradientUnits="userSpaceOnUse"><stop offset="0" stop-color="#018b7f"/><stop offset="0.33" stop-color="#01838f"/><stop offset="0.98" stop-color="#0170b8"/><stop offset="1" stop-color="#016fb9"/></linearGradient><linearGradient id="Blue_Gradient-2" x1="119.36" y1="128.3" x2="137.93" y2="128.3" xlink:href="#Blue_Gradient"/></defs><path class="cls-1" d="M180,42.24a76.74,76.74,0,0,0-43.11-19.07,79.08,79.08,0,0,0-33.33,3.57A75.82,75.82,0,0,0,73.44,45.47,68.85,68.85,0,0,0,63.25,57.88l-2.14,3.19-3.29,2.24A65.91,65.91,0,0,0,45.44,73.48a77,77,0,0,0-21.94,65.7,76.07,76.07,0,0,0,21.94,44,71,71,0,0,0,12.41,10.19l3.28,2.24,2.27,3.31A68.23,68.23,0,0,0,73.57,211.3a74.6,74.6,0,0,0,29.31,18.36,78,78,0,0,0,70.17-9.82,82.09,82.09,0,0,0,20.82-21.71c1.71-2.59,1.73-2.62,4.91-4.72a77.77,77.77,0,0,0,2.27-128.64c-1.92-1.39-3.92-2.74-4.44-3a9.3,9.3,0,0,1-2.56-3.06A86,86,0,0,0,180,42.24Zm4.22,10.34c1.13,1.28,2.42,2.81,2.84,3.43l.81,1.11-3.5-1.43a74.29,74.29,0,0,0-28.5-5.11,76.34,76.34,0,0,0-24.53,3.9l-3,1-3.65-1.18a79.18,79.18,0,0,0-51.81,1.23c-1.95.77-3.53,1.21-3.51,1a39,39,0,0,1,3.41-4.34A74.46,74.46,0,0,1,110.5,29a73.65,73.65,0,0,1,42,2A68.87,68.87,0,0,1,172,41.08a84.08,84.08,0,0,1,9.18,8.09C181.69,49.74,183,51.27,184.18,52.58Zm30.57,31.11a72.06,72.06,0,0,1,13.72,30.74,73.16,73.16,0,0,1-15.32,60.48c-2.69,3.28-10.59,10.93-12.59,12.19l-1,.62.84-2c6.83-16.16,7.6-37,1.9-53.81l-1.16-3.53,1.36-4.17a77.53,77.53,0,0,0-1.88-52.7l-1-2.64L201.1,70A73.12,73.12,0,0,1,214.75,83.69ZM193.8,66.59c3.63,6.64,6.74,16.85,7.82,25.74a82,82,0,0,1-1.77,25.85c-1.19,4.74-1,4.72-3.34.42A77.79,77.79,0,0,0,171,91.07l-3.18-2.15-2.12-3.16a66.3,66.3,0,0,0-9.95-12.16,77.73,77.73,0,0,0-18.92-14.14A14.3,14.3,0,0,1,134.26,58c0-.3,8.1-2.07,12-2.64a88.41,88.41,0,0,1,20.5.07A77.69,77.69,0,0,1,181.32,59c3.38,1.26,11.07,4.91,11.27,5.41C192.69,64.59,193.23,65.58,193.8,66.59Zm-37.68,13.5a34.68,34.68,0,0,1,3.34,4.22c.09.34-.52.22-1.83-.35a87.2,87.2,0,0,0-13.62-4,80.57,80.57,0,0,0-32.08.09c-3.7.79-13.69,4-14.28,4.57a.42.42,0,0,1-.55.1c-.24-.25,1.49-2.42,5.38-6.71A73.22,73.22,0,0,1,126,61.11L128.39,60l3.18,1.51a80.23,80.23,0,0,1,17,11A45.29,45.29,0,0,1,156.12,80.09Zm30.25,30.74a78.33,78.33,0,0,1,9.16,15.08l1.16,2.59-2,4a68.22,68.22,0,0,1-10.85,16.39,55.86,55.86,0,0,1-6.84,6.83c-5.18,4.44-5.47,4.59-4.49,2.42,2.47-5.38,4.91-15.52,5.58-23.14a80.83,80.83,0,0,0-5.13-35.53c-.67-1.61-.79-2.32-.45-2.22C174.21,97.78,182.35,105.72,186.37,110.83Zm-19.59-14.7a71.53,71.53,0,0,1,7.31,32.22,70.33,70.33,0,0,1-7.48,32.45l-1.92,3.89-4.05,2a74.65,74.65,0,0,1-40.12,7.06,78.15,78.15,0,0,1-24.75-7.18l-3.7-1.88-1.95-3.82a80.41,80.41,0,0,1-6-17.57,73.64,73.64,0,0,1,5.82-47.13L92,91.93,95.85,90a77.18,77.18,0,0,1,24.42-7.1,76.65,76.65,0,0,1,35.06,4.66A91,91,0,0,1,164.59,92C164.76,92.13,165.72,94,166.78,96.13Zm-44.68-38c-.07.08-1.33.79-2.79,1.56a73.78,73.78,0,0,0-18,13.59A70.46,70.46,0,0,0,90.84,86c-1.93,2.91-1.93,2.91-4.81,4.81a68.15,68.15,0,0,0-12.64,10.36,72.62,72.62,0,0,0-13.64,18.14A11.18,11.18,0,0,1,58.07,122c-.39,0-1.92-6.51-2.61-11a91.92,91.92,0,0,1,0-21,76.18,76.18,0,0,1,7-22.68l1.6-3.18,4.27-2.1a75.25,75.25,0,0,1,49.86-5.25C121.8,57.66,122.4,57.86,122.1,58.15Zm77.75,80.32c4.24,16.92,1.72,37.6-6.32,52l-1.23,2.22-3.41,1.68a81.63,81.63,0,0,1-8.54,3.45,73.62,73.62,0,0,1-42.16,1.95c-2.17-.54-3.95-1-3.95-1.08a28,28,0,0,1,3.08-1.71A88.13,88.13,0,0,0,152,186.73a75.7,75.7,0,0,0,12.34-13.87c1.2-1.8,2.54-3.67,2.91-4.24a20.4,20.4,0,0,1,3.85-3.06,70.25,70.25,0,0,0,12.43-10.27,75,75,0,0,0,13.77-18.55C198.78,133.85,198.69,133.75,199.85,138.47ZM182.2,206.15a76.51,76.51,0,0,1-7.42,7.08,73.88,73.88,0,0,1-40.39,16.31c-22.75,2-46.69-7.65-61.39-24.87a42.22,42.22,0,0,1-3.53-4.42c0-.3,1.23.05,3.33.86a81.09,81.09,0,0,0,25.64,5,82.93,82.93,0,0,0,26.25-3.75l3.58-1.16,4,1.21a80.41,80.41,0,0,0,43.06,1.36c3.52-.92,11.54-3.65,12.16-4.17.2-.15,0,.2-.3.79A65.22,65.22,0,0,1,182.2,206.15ZM54.25,76.71a73.63,73.63,0,0,0-3.61,23.73,76.17,76.17,0,0,0,3.56,23.74l1.33,4.24-1,2.89c-5.73,16.83-5.28,37.06,1.18,53,1.53,3.75,1.38,3.75-3.85-.74a72.9,72.9,0,0,1-21.76-33.46A76,76,0,0,1,31.3,103a76.12,76.12,0,0,1,21-30.32c2.22-1.88,4.17-3.43,4.39-3.51s.05.69-.35,1.63S55,74.39,54.25,76.71ZM84.67,97.56a49.18,49.18,0,0,0-2,5.45,77.54,77.54,0,0,0,0,50.61,42.05,42.05,0,0,0,2.12,5.52c.22.23.2.35-.08.37-.86,0-7.37-5.7-10.28-8.95a83.67,83.67,0,0,1-12.88-19.1c-1.58-3.41-1.63-3.21,1.18-8.69a74.05,74.05,0,0,1,15.52-20.5c4.24-3.85,6.34-5.5,6.59-5.26A.42.42,0,0,1,84.67,97.56Zm71.16,79.35a75.05,75.05,0,0,1-25.76,19l-1.73.74-3.11-1.48a73.69,73.69,0,0,1-20.48-14.26c-4.36-4.32-8-8.54-7.65-8.89a.37.37,0,0,1,.52.08,51.74,51.74,0,0,0,5.11,1.95,79,79,0,0,0,41.7,2.61,83.67,83.67,0,0,0,13.2-3.92C160.2,171.6,160,172,155.83,176.91ZM64.29,144.59a78.9,78.9,0,0,0,22.53,21.78A8.39,8.39,0,0,1,90.39,170a79.43,79.43,0,0,0,28.25,26.57,20.22,20.22,0,0,1,3.43,2.15c0,.35-7.08,2-11.47,2.59a96.84,96.84,0,0,1-10.09.62,71.09,71.09,0,0,1-32.77-7.6l-3.53-1.75-1.87-3.7a86.31,86.31,0,0,1-6.07-17.47,77.45,77.45,0,0,1,1.13-35.14l.62-2.15,2,3.71C61.18,139.8,63.08,142.88,64.29,144.59Z"/><circle class="cls-2" cx="128.65" cy="128.3" r="9.28"/></svg>