<svg id="Layer_1" data-name="Layer 1" xmlns="http://www.w3.org/2000/svg" xmlns:xlink="http://www.w3.org/1999/xlink" viewBox="0 0 256.7 256.6"><defs><style>.cls-1{fill:url(#Blue_Gradient);}.cls-2{fill:url(#Blue_Gradient-2);}.cls-3{fill:url(#Blue_Gradient-3);}.cls-4{fill:url(#Blue_Gradient-4);}.cls-5{fill:url(#Blue_Gradient-5);}.cls-6{fill:url(#Blue_Gradient-6);}.cls-7{fill:url(#Blue_Gradient-7);}</style><linearGradient id="Blue_Gradient" x1="98.07" y1="128.3" x2="226.89" y2="128.3" gradientUnits="userSpaceOnUse"><stop offset="0" stop-color="#018b7f"/><stop offset="0.33" stop-color="#01838f"/><stop offset="0.98" stop-color="#0170b8"/><stop offset="1" stop-color="#016fb9"/></linearGradient><linearGradient id="Blue_Gradient-2" x1="39.15" y1="54.1" x2="82.81" y2="54.1" xlink:href="#Blue_Gradient"/><linearGradient id="Blue_Gradient-3" x1="39.15" y1="128.3" x2="82.81" y2="128.3" xlink:href="#Blue_Gradient"/><linearGradient id="Blue_Gradient-4" x1="106.82" y1="128.3" x2="150.48" y2="128.3" xlink:href="#Blue_Gradient"/><linearGradient id="Blue_Gradient-5" x1="174.48" y1="202.5" x2="218.14" y2="202.5" xlink:href="#Blue_Gradient"/><linearGradient id="Blue_Gradient-6" x1="39.15" y1="202.5" x2="82.81" y2="202.5" xlink:href="#Blue_Gradient"/><linearGradient id="Blue_Gradient-7" x1="174.48" y1="54.1" x2="218.14" y2="54.1" xlink:href="#Blue_Gradient"/></defs><path class="cls-1" d="M177.64,152.49a30.58,30.58,0,1,0,0-48.37L151,74.91a30.58,30.58,0,1,0-3.69,3.37L174,107.49a30.49,30.49,0,0,0,0,41.63l-26.63,29.2a30.67,30.67,0,1,0,3.69,3.37Zm18.67-49.76A25.57,25.57,0,1,1,181,148.78l11.09-12.15a9.34,9.34,0,1,0,0-16.65L181,107.82A25.4,25.4,0,0,1,196.31,102.73ZM128.65,79.67a25.61,25.61,0,1,1,19-8.46L136.55,59.05a9.37,9.37,0,1,0-3.7,3.37l11.09,12.16A25.4,25.4,0,0,1,128.65,79.67Zm42.09,48.63a25.49,25.49,0,0,1,6.59-17.11l11.08,12.16a9.3,9.3,0,0,0,0,9.91l-11.08,12.15A25.46,25.46,0,0,1,170.74,128.3Zm-16.52,74.2A25.6,25.6,0,1,1,143.94,182l-11.09,12.16a9.34,9.34,0,1,0,3.7,3.37l11.08-12.15A25.45,25.45,0,0,1,154.22,202.5Z"/><polygon class="cls-2" points="79.27 32.27 60.98 50.56 42.68 32.27 39.15 35.8 57.44 54.1 39.15 72.39 42.68 75.93 60.98 57.63 79.27 75.93 82.81 72.39 64.51 54.1 82.81 35.8 79.27 32.27"/><polygon class="cls-3" points="79.27 106.47 60.98 124.77 42.68 106.47 39.15 110.01 57.44 128.3 39.15 146.6 42.68 150.13 60.98 131.84 79.27 150.13 82.81 146.6 64.51 128.3 82.81 110.01 79.27 106.47"/><polygon class="cls-4" points="110.35 150.13 128.65 131.84 146.94 150.13 150.48 146.6 132.18 128.3 150.48 110.01 146.94 106.47 128.65 124.77 110.35 106.47 106.82 110.01 125.11 128.3 106.82 146.6 110.35 150.13"/><polygon class="cls-5" points="214.61 180.68 196.31 198.97 178.02 180.68 174.48 184.21 192.78 202.5 174.48 220.8 178.02 224.34 196.31 206.04 214.61 224.34 218.15 220.8 199.85 202.5 218.15 184.21 214.61 180.68"/><polygon class="cls-6" points="79.27 180.68 60.98 198.97 42.68 180.68 39.15 184.21 57.44 202.5 39.15 220.8 42.68 224.34 60.98 206.04 79.27 224.34 82.81 220.8 64.51 202.5 82.81 184.21 79.27 180.68"/><polygon class="cls-7" points="178.02 75.93 196.31 57.63 214.61 75.93 218.15 72.39 199.85 54.1 218.15 35.8 214.61 32.27 196.31 50.56 178.02 32.27 174.48 35.8 192.78 54.1 174.48 72.39 178.02 75.93"/></svg>